<svg width="246" height="73" viewBox="0 0 246 73" fill="none" xmlns="http://www.w3.org/2000/svg">
<path d="M3.03409 46V11.0909H16.8068C19.4432 11.0909 21.6932 11.5625 23.5568 12.5057C25.4318 13.4375 26.858 14.7614 27.8352 16.4773C28.8239 18.1818 29.3182 20.1875 29.3182 22.4943C29.3182 24.8125 28.8182 26.8068 27.8182 28.4773C26.8182 30.1364 25.3693 31.4091 23.4716 32.2955C21.5852 33.1818 19.3011 33.625 16.6193 33.625H7.39773V27.6932H15.4261C16.8352 27.6932 18.0057 27.5 18.9375 27.1136C19.8693 26.7273 20.5625 26.1477 21.017 25.375C21.483 24.6023 21.7159 23.642 21.7159 22.4943C21.7159 21.3352 21.483 20.358 21.017 19.5625C20.5625 18.767 19.8636 18.1648 18.9205 17.7557C17.9886 17.3352 16.8125 17.125 15.392 17.125H10.4148V46H3.03409ZM21.8864 30.1136L30.5625 46H22.4148L13.9261 30.1136H21.8864ZM41.8636 46.4943C40.1932 46.4943 38.7045 46.2045 37.3977 45.625C36.0909 45.0341 35.0568 44.1648 34.2955 43.017C33.5455 41.858 33.1705 40.4148 33.1705 38.6875C33.1705 37.233 33.4375 36.0114 33.9716 35.0227C34.5057 34.0341 35.233 33.2386 36.1534 32.6364C37.0739 32.0341 38.1193 31.5795 39.2898 31.2727C40.4716 30.9659 41.7102 30.75 43.0057 30.625C44.5284 30.4659 45.7557 30.3182 46.6875 30.1818C47.6193 30.0341 48.2955 29.8182 48.7159 29.5341C49.1364 29.25 49.3466 28.8295 49.3466 28.2727V28.1705C49.3466 27.0909 49.0057 26.2557 48.3239 25.6648C47.6534 25.0739 46.6989 24.7784 45.4602 24.7784C44.1534 24.7784 43.1136 25.0682 42.3409 25.6477C41.5682 26.2159 41.0568 26.9318 40.8068 27.7955L34.0909 27.25C34.4318 25.6591 35.1023 24.2841 36.1023 23.125C37.1023 21.9545 38.392 21.0568 39.9716 20.4318C41.5625 19.7955 43.4034 19.4773 45.4943 19.4773C46.9489 19.4773 48.3409 19.6477 49.6705 19.9886C51.0114 20.3295 52.1989 20.858 53.233 21.5739C54.2784 22.2898 55.1023 23.2102 55.7045 24.3352C56.3068 25.4489 56.608 26.7841 56.608 28.3409V46H49.7216V42.3693H49.517C49.0966 43.1875 48.5341 43.9091 47.8295 44.5341C47.125 45.1477 46.2784 45.6307 45.2898 45.983C44.3011 46.3239 43.1591 46.4943 41.8636 46.4943ZM43.9432 41.483C45.0114 41.483 45.9545 41.2727 46.7727 40.8523C47.5909 40.4205 48.233 39.8409 48.6989 39.1136C49.1648 38.3864 49.3977 37.5625 49.3977 36.642V33.8636C49.1705 34.0114 48.858 34.1477 48.4602 34.2727C48.0739 34.3864 47.6364 34.4943 47.1477 34.5966C46.6591 34.6875 46.1705 34.7727 45.6818 34.8523C45.1932 34.9205 44.75 34.983 44.3523 35.0398C43.5 35.1648 42.7557 35.3636 42.1193 35.6364C41.483 35.9091 40.9886 36.2784 40.6364 36.7443C40.2841 37.1989 40.108 37.767 40.108 38.4489C40.108 39.4375 40.4659 40.1932 41.1818 40.7159C41.9091 41.2273 42.8295 41.483 43.9432 41.483ZM71.8892 46.4261C69.9006 46.4261 68.0994 45.9148 66.4858 44.892C64.8835 43.858 63.6108 42.3409 62.6676 40.3409C61.7358 38.3295 61.2699 35.8636 61.2699 32.9432C61.2699 29.9432 61.7528 27.4489 62.7188 25.4602C63.6847 23.4602 64.9688 21.9659 66.571 20.9773C68.1847 19.9773 69.9517 19.4773 71.8722 19.4773C73.3381 19.4773 74.5597 19.7273 75.5369 20.2273C76.5256 20.7159 77.321 21.3295 77.9233 22.0682C78.5369 22.7955 79.0028 23.5114 79.321 24.2159H79.5426V11.0909H86.7869V46H79.6278V41.8068H79.321C78.9801 42.5341 78.4972 43.2557 77.8722 43.9716C77.2585 44.6761 76.4574 45.2614 75.4688 45.7273C74.4915 46.1932 73.2983 46.4261 71.8892 46.4261ZM74.1903 40.6477C75.3608 40.6477 76.3494 40.3295 77.1562 39.6932C77.9744 39.0455 78.5994 38.142 79.0312 36.983C79.4744 35.8239 79.696 34.4659 79.696 32.9091C79.696 31.3523 79.4801 30 79.0483 28.8523C78.6165 27.7045 77.9915 26.8182 77.1733 26.1932C76.3551 25.5682 75.3608 25.2557 74.1903 25.2557C72.9972 25.2557 71.9915 25.5795 71.1733 26.2273C70.3551 26.875 69.7358 27.7727 69.3153 28.9205C68.8949 30.0682 68.6847 31.3977 68.6847 32.9091C68.6847 34.4318 68.8949 35.7784 69.3153 36.9489C69.7472 38.108 70.3665 39.017 71.1733 39.6761C71.9915 40.3239 72.9972 40.6477 74.1903 40.6477ZM92.7571 46V19.8182H100.018V46H92.7571ZM96.4048 16.4432C95.3253 16.4432 94.3991 16.0852 93.6264 15.3693C92.8651 14.642 92.4844 13.7727 92.4844 12.7614C92.4844 11.7614 92.8651 10.9034 93.6264 10.1875C94.3991 9.46023 95.3253 9.09659 96.4048 9.09659C97.4844 9.09659 98.4048 9.46023 99.1662 10.1875C99.9389 10.9034 100.325 11.7614 100.325 12.7614C100.325 13.7727 99.9389 14.642 99.1662 15.3693C98.4048 16.0852 97.4844 16.4432 96.4048 16.4432ZM117.665 46.5114C115.017 46.5114 112.727 45.9489 110.795 44.8239C108.875 43.6875 107.392 42.108 106.347 40.0852C105.301 38.0511 104.778 35.6932 104.778 33.0114C104.778 30.3068 105.301 27.9432 106.347 25.9205C107.392 23.8864 108.875 22.3068 110.795 21.1818C112.727 20.0455 115.017 19.4773 117.665 19.4773C120.312 19.4773 122.597 20.0455 124.517 21.1818C126.449 22.3068 127.938 23.8864 128.983 25.9205C130.028 27.9432 130.551 30.3068 130.551 33.0114C130.551 35.6932 130.028 38.0511 128.983 40.0852C127.938 42.108 126.449 43.6875 124.517 44.8239C122.597 45.9489 120.312 46.5114 117.665 46.5114ZM117.699 40.8864C118.903 40.8864 119.909 40.5455 120.716 39.8636C121.523 39.1705 122.131 38.2273 122.54 37.0341C122.96 35.8409 123.17 34.483 123.17 32.9602C123.17 31.4375 122.96 30.0795 122.54 28.8864C122.131 27.6932 121.523 26.75 120.716 26.0568C119.909 25.3636 118.903 25.017 117.699 25.017C116.483 25.017 115.46 25.3636 114.631 26.0568C113.813 26.75 113.193 27.6932 112.773 28.8864C112.364 30.0795 112.159 31.4375 112.159 32.9602C112.159 34.483 112.364 35.8409 112.773 37.0341C113.193 38.2273 113.813 39.1705 114.631 39.8636C115.46 40.5455 116.483 40.8864 117.699 40.8864Z" fill="#1E1E1E"/>
<path d="M132.158 17.1761V11.0909H160.828V17.1761H150.141V46H142.845V17.1761H132.158ZM173.548 46.5114C170.855 46.5114 168.537 45.9659 166.594 44.875C164.662 43.7727 163.173 42.2159 162.128 40.2045C161.082 38.1818 160.56 35.7898 160.56 33.0284C160.56 30.3352 161.082 27.9716 162.128 25.9375C163.173 23.9034 164.645 22.3182 166.543 21.1818C168.452 20.0455 170.69 19.4773 173.259 19.4773C174.986 19.4773 176.594 19.7557 178.082 20.3125C179.582 20.858 180.889 21.6818 182.003 22.7841C183.128 23.8864 184.003 25.2727 184.628 26.9432C185.253 28.6023 185.565 30.5455 185.565 32.7727V34.767H163.457V30.267H178.73C178.73 29.2216 178.503 28.2955 178.048 27.4886C177.594 26.6818 176.963 26.0511 176.156 25.5966C175.361 25.1307 174.435 24.8977 173.378 24.8977C172.276 24.8977 171.298 25.1534 170.446 25.6648C169.605 26.1648 168.946 26.8409 168.469 27.6932C167.991 28.5341 167.747 29.4716 167.736 30.5057V34.7841C167.736 36.0795 167.974 37.1989 168.452 38.142C168.94 39.0852 169.628 39.8125 170.514 40.3239C171.401 40.8352 172.452 41.0909 173.668 41.0909C174.474 41.0909 175.213 40.9773 175.884 40.75C176.554 40.5227 177.128 40.1818 177.605 39.7273C178.082 39.2727 178.446 38.7159 178.696 38.0568L185.412 38.5C185.071 40.1136 184.372 41.5227 183.315 42.7273C182.27 43.9205 180.918 44.8523 179.259 45.5227C177.611 46.1818 175.707 46.5114 173.548 46.5114ZM202.134 46.5114C199.452 46.5114 197.145 45.9432 195.213 44.8068C193.293 43.6591 191.815 42.0682 190.781 40.0341C189.759 38 189.247 35.6591 189.247 33.0114C189.247 30.3295 189.764 27.9773 190.798 25.9545C191.844 23.9205 193.327 22.3352 195.247 21.1989C197.168 20.0511 199.452 19.4773 202.099 19.4773C204.384 19.4773 206.384 19.892 208.099 20.7216C209.815 21.5511 211.173 22.7159 212.173 24.2159C213.173 25.7159 213.724 27.4773 213.827 29.5H206.974C206.781 28.1932 206.27 27.142 205.44 26.3466C204.622 25.5398 203.548 25.1364 202.219 25.1364C201.094 25.1364 200.111 25.4432 199.27 26.0568C198.44 26.6591 197.793 27.5398 197.327 28.6989C196.861 29.858 196.628 31.2614 196.628 32.9091C196.628 34.5795 196.855 36 197.31 37.1705C197.776 38.3409 198.429 39.233 199.27 39.8466C200.111 40.4602 201.094 40.767 202.219 40.767C203.048 40.767 203.793 40.5966 204.452 40.2557C205.122 39.9148 205.673 39.4205 206.105 38.7727C206.548 38.1136 206.838 37.3239 206.974 36.4034H213.827C213.713 38.4034 213.168 40.1648 212.19 41.6875C211.224 43.1989 209.889 44.3807 208.185 45.233C206.48 46.0852 204.463 46.5114 202.134 46.5114ZM225.737 30.8636V46H218.476V11.0909H225.533V24.4375H225.839C226.43 22.892 227.385 21.6818 228.703 20.8068C230.021 19.9205 231.675 19.4773 233.663 19.4773C235.482 19.4773 237.067 19.875 238.419 20.6705C239.783 21.4545 240.839 22.5852 241.589 24.0625C242.351 25.5284 242.726 27.2841 242.714 29.3295V46H235.453V30.625C235.464 29.0114 235.055 27.7557 234.226 26.858C233.408 25.9602 232.26 25.5114 230.783 25.5114C229.794 25.5114 228.919 25.7216 228.158 26.142C227.408 26.5625 226.817 27.1761 226.385 27.983C225.964 28.7784 225.749 29.7386 225.737 30.8636Z" fill="#3B82F6"/>
<path d="M3.12414 63.0682V51.8182H4.04566V53.3789H4.15752C4.27115 53.1339 4.4274 52.8835 4.62627 52.6278C4.82513 52.3686 5.08791 52.1502 5.41462 51.9727C5.74487 51.7951 6.16036 51.7063 6.66107 51.7063C7.33578 51.7063 7.92527 51.8839 8.42953 52.239C8.93735 52.5906 9.33152 53.0842 9.61206 53.7198C9.89615 54.3519 10.0382 55.0888 10.0382 55.9304C10.0382 56.7756 9.89615 57.516 9.61206 58.1516C9.33152 58.7873 8.93735 59.2827 8.42953 59.6378C7.92527 59.9929 7.33933 60.1705 6.67172 60.1705C6.17811 60.1705 5.76441 60.0817 5.4306 59.9041C5.10034 59.7266 4.83223 59.5082 4.62627 59.2489C4.42385 58.9862 4.2676 58.7305 4.15752 58.4819H4.07229V63.0682H3.12414ZM4.06164 55.9144C4.06164 56.5749 4.15929 57.1609 4.3546 57.6722C4.55347 58.18 4.83756 58.5795 5.20688 58.8707C5.57975 59.1584 6.03074 59.3022 6.55986 59.3022C7.10318 59.3022 7.56128 59.1531 7.93415 58.8548C8.31057 58.5529 8.59644 58.1463 8.79175 57.6349C8.99061 57.1236 9.09005 56.5501 9.09005 55.9144C9.09005 55.2859 8.99239 54.7195 8.79708 54.2152C8.60531 53.7109 8.32122 53.3114 7.9448 53.0167C7.56838 52.7184 7.10674 52.5692 6.55986 52.5692C6.02719 52.5692 5.57442 52.7131 5.20155 53.0007C4.82868 53.2848 4.54459 53.679 4.34928 54.1832C4.15752 54.6839 4.06164 55.261 4.06164 55.9144ZM14.5534 60.1864C14.0598 60.1864 13.6088 60.0906 13.2004 59.8988C12.7921 59.7035 12.4671 59.4229 12.2257 59.0572C11.9842 58.6879 11.8634 58.2404 11.8634 57.7148C11.8634 57.31 11.9398 56.9691 12.0925 56.6921C12.2452 56.4151 12.4618 56.1879 12.7424 56.0103C13.0229 55.8327 13.3549 55.6925 13.7384 55.5895C14.122 55.4865 14.5446 55.4066 15.0062 55.3498C15.4643 55.293 15.8514 55.2433 16.1674 55.2006C16.487 55.158 16.7303 55.0906 16.8972 54.9982C17.0641 54.9059 17.1475 54.7567 17.1475 54.5508V54.359C17.1475 53.8015 16.9806 53.3629 16.6468 53.0433C16.3166 52.7202 15.8407 52.5586 15.2193 52.5586C14.6298 52.5586 14.1486 52.6882 13.7757 52.9474C13.4064 53.2067 13.1472 53.5121 12.998 53.8636L12.0978 53.5387C12.2825 53.0913 12.5382 52.7344 12.8649 52.468C13.1916 52.1982 13.5573 52.0046 13.9622 51.8874C14.367 51.7667 14.7772 51.7063 15.1926 51.7063C15.5051 51.7063 15.8301 51.7472 16.1674 51.8288C16.5083 51.9105 16.8244 52.0526 17.1156 52.255C17.4068 52.4538 17.6429 52.7326 17.824 53.0913C18.0051 53.4464 18.0957 53.8974 18.0957 54.4442V60H17.1475V58.7056H17.0889C16.9753 58.9471 16.8066 59.1815 16.5829 59.4087C16.3592 59.636 16.0786 59.8224 15.7413 59.968C15.4039 60.1136 15.008 60.1864 14.5534 60.1864ZM14.6813 59.3182C15.1855 59.3182 15.6223 59.2063 15.9916 58.9826C16.361 58.7589 16.6451 58.4624 16.8439 58.093C17.0463 57.7202 17.1475 57.31 17.1475 56.8626V55.68C17.0765 55.7475 16.9576 55.8079 16.7906 55.8612C16.6273 55.9144 16.4373 55.9624 16.2207 56.005C16.0076 56.044 15.7946 56.0778 15.5815 56.1062C15.3684 56.1346 15.1767 56.1594 15.0062 56.1808C14.5446 56.2376 14.1504 56.3263 13.8237 56.4471C13.497 56.5678 13.2466 56.7347 13.0726 56.9478C12.8986 57.1573 12.8116 57.4272 12.8116 57.7575C12.8116 58.2546 12.9892 58.6399 13.3443 58.9134C13.6994 59.1832 14.1451 59.3182 14.6813 59.3182ZM19.7984 62.3278V59.1051H20.5069C20.6844 58.9062 20.8389 58.6914 20.9703 58.4606C21.1017 58.2298 21.2153 57.967 21.3112 57.6722C21.4106 57.3739 21.4941 57.0277 21.5616 56.6335C21.629 56.2358 21.6859 55.7724 21.732 55.2433L22.0303 51.8182H26.8723V59.1051H28.0868V62.3278H27.1386V60H20.7519V62.3278H19.7984ZM21.5989 59.1051H25.9241V52.7131H22.9145L22.6695 55.2433C22.5843 56.1026 22.4636 56.8519 22.3073 57.4911C22.1511 58.1303 21.9149 58.6683 21.5989 59.1051ZM30.0545 60V51.8182H31.008V60H30.0545ZM30.5392 50.4119C30.3439 50.4119 30.177 50.3462 30.0385 50.2148C29.9 50.0799 29.8308 49.9183 29.8308 49.7301C29.8308 49.5419 29.9 49.3821 30.0385 49.2507C30.177 49.1158 30.3439 49.0483 30.5392 49.0483C30.7346 49.0483 30.9015 49.1158 31.04 49.2507C31.1785 49.3821 31.2477 49.5419 31.2477 49.7301C31.2477 49.9183 31.1785 50.0799 31.04 50.2148C30.9015 50.3462 30.7346 50.4119 30.5392 50.4119ZM36.8456 60.1705C36.1389 60.1705 35.5139 59.9911 34.9706 59.6325C34.4308 59.2738 34.0082 58.7784 33.7028 58.1463C33.3974 57.5107 33.2447 56.7773 33.2447 55.9464C33.2447 55.1083 33.3974 54.3714 33.7028 53.7358C34.0082 53.0966 34.4308 52.5994 34.9706 52.2443C35.5139 51.8857 36.1389 51.7063 36.8456 51.7063C37.5523 51.7063 38.1755 51.8857 38.7153 52.2443C39.255 52.603 39.6776 53.1001 39.983 53.7358C40.292 54.3714 40.4464 55.1083 40.4464 55.9464C40.4464 56.7773 40.2937 57.5107 39.9883 58.1463C39.6829 58.7784 39.2586 59.2738 38.7153 59.6325C38.1755 59.9911 37.5523 60.1705 36.8456 60.1705ZM36.8456 59.3022C37.4138 59.3022 37.8949 59.1495 38.2891 58.8441C38.6833 58.5387 38.9816 58.1321 39.184 57.6243C39.39 57.1165 39.493 56.5572 39.493 55.9464C39.493 55.3356 39.39 54.7745 39.184 54.2631C38.9816 53.7518 38.6833 53.3416 38.2891 53.0327C37.8949 52.7237 37.4138 52.5692 36.8456 52.5692C36.281 52.5692 35.7998 52.7237 35.402 53.0327C35.0079 53.3416 34.7078 53.7518 34.5018 54.2631C34.2994 54.7745 34.1982 55.3356 34.1982 55.9464C34.1982 56.5572 34.2994 57.1165 34.5018 57.6243C34.7078 58.1321 35.0079 58.5387 35.402 58.8441C35.7962 59.1495 36.2774 59.3022 36.8456 59.3022ZM45.8579 60.1705C45.1512 60.1705 44.5262 59.9911 43.9829 59.6325C43.4431 59.2738 43.0205 58.7784 42.7151 58.1463C42.4097 57.5107 42.257 56.7773 42.257 55.9464C42.257 55.1083 42.4097 54.3714 42.7151 53.7358C43.0205 53.0966 43.4431 52.5994 43.9829 52.2443C44.5262 51.8857 45.1512 51.7063 45.8579 51.7063C46.5646 51.7063 47.1878 51.8857 47.7276 52.2443C48.2673 52.603 48.6899 53.1001 48.9953 53.7358C49.3043 54.3714 49.4587 55.1083 49.4587 55.9464C49.4587 56.7773 49.306 57.5107 49.0006 58.1463C48.6952 58.7784 48.2709 59.2738 47.7276 59.6325C47.1878 59.9911 46.5646 60.1705 45.8579 60.1705ZM45.8579 59.3022C46.4261 59.3022 46.9073 59.1495 47.3014 58.8441C47.6956 58.5387 47.9939 58.1321 48.1963 57.6243C48.4023 57.1165 48.5053 56.5572 48.5053 55.9464C48.5053 55.3356 48.4023 54.7745 48.1963 54.2631C47.9939 53.7518 47.6956 53.3416 47.3014 53.0327C46.9073 52.7237 46.4261 52.5692 45.8579 52.5692C45.2933 52.5692 44.8121 52.7237 44.4144 53.0327C44.0202 53.3416 43.7201 53.7518 43.5141 54.2631C43.3117 54.7745 43.2105 55.3356 43.2105 55.9464C43.2105 56.5572 43.3117 57.1165 43.5141 57.6243C43.7201 58.1321 44.0202 58.5387 44.4144 58.8441C44.8085 59.1495 45.2897 59.3022 45.8579 59.3022ZM57.5815 48.75L58.0769 49.3519C57.8532 49.5685 57.585 49.7177 57.2725 49.7994C56.9636 49.8775 56.6174 49.9219 56.2338 49.9325C55.8539 49.9432 55.4437 49.9592 55.0034 49.9805C54.3713 50.0124 53.851 50.1776 53.4426 50.4759C53.0343 50.7706 52.7235 51.1967 52.5105 51.7543C52.3009 52.3082 52.1696 52.9847 52.1163 53.7837H52.2228C52.4963 53.2262 52.8816 52.8018 53.3787 52.5107C53.8794 52.2195 54.4299 52.0739 55.03 52.0739C55.6585 52.0739 56.2232 52.2283 56.7239 52.5373C57.2282 52.8427 57.6259 53.2919 57.9171 53.8849C58.2118 54.4744 58.3592 55.1935 58.3592 56.0423C58.3592 56.8803 58.2118 57.6101 57.9171 58.2315C57.6223 58.8494 57.2104 59.3271 56.6813 59.6644C56.1522 60.0018 55.5325 60.1705 54.8223 60.1705C54.1085 60.1705 53.4835 60.0036 52.9473 59.6697C52.4146 59.3324 52.0009 58.837 51.7061 58.1836C51.4149 57.5266 51.2693 56.7187 51.2693 55.7599V54.9023C51.2693 52.9954 51.5712 51.5607 52.1749 50.5984C52.7786 49.636 53.7072 49.1335 54.9607 49.0909C55.3656 49.0767 55.7331 49.0732 56.0634 49.0803C56.3936 49.0838 56.6848 49.0678 56.937 49.0323C57.1891 48.9933 57.4039 48.8991 57.5815 48.75ZM54.8223 59.3022C55.3514 59.3022 55.8095 59.169 56.1965 58.9027C56.5836 58.6328 56.8819 58.2528 57.0914 57.7628C57.3045 57.2727 57.411 56.6992 57.411 56.0423C57.411 55.3888 57.3027 54.8313 57.0861 54.3697C56.873 53.908 56.5747 53.5547 56.1912 53.3097C55.8077 53.0646 55.3585 52.9421 54.8436 52.9421C54.4387 52.9421 54.0747 53.0202 53.7516 53.1765C53.432 53.3292 53.1585 53.5476 52.9313 53.8317C52.704 54.1158 52.53 54.4496 52.4093 54.8331C52.2885 55.2166 52.2264 55.6374 52.2228 56.0955C52.2228 57.0863 52.4536 57.8693 52.9153 58.4446C53.3805 59.0163 54.0161 59.3022 54.8223 59.3022ZM59.7809 60V59.1051H60.0366C60.3278 59.1051 60.5622 59.0518 60.7397 58.9453C60.9209 58.8352 61.0611 58.6506 61.1606 58.3913C61.26 58.1321 61.3346 57.7788 61.3843 57.3313C61.434 56.8839 61.4731 56.3228 61.5015 55.6481L61.6772 51.8182H66.8761V60H65.9226V52.7131H62.5775L62.423 55.9677C62.391 56.6317 62.3378 57.2159 62.2632 57.7202C62.1922 58.2244 62.075 58.6452 61.9116 58.9826C61.7518 59.32 61.5281 59.5739 61.2405 59.7443C60.9564 59.9148 60.5835 60 60.1218 60H59.7809ZM71.8241 60.1864C71.3305 60.1864 70.8795 60.0906 70.4711 59.8988C70.0628 59.7035 69.7378 59.4229 69.4964 59.0572C69.2549 58.6879 69.1341 58.2404 69.1341 57.7148C69.1341 57.31 69.2105 56.9691 69.3632 56.6921C69.5159 56.4151 69.7325 56.1879 70.0131 56.0103C70.2936 55.8327 70.6256 55.6925 71.0091 55.5895C71.3927 55.4865 71.8153 55.4066 72.2769 55.3498C72.735 55.293 73.1221 55.2433 73.4381 55.2006C73.7577 55.158 74.001 55.0906 74.1679 54.9982C74.3348 54.9059 74.4182 54.7567 74.4182 54.5508V54.359C74.4182 53.8015 74.2513 53.3629 73.9175 53.0433C73.5873 52.7202 73.1114 52.5586 72.49 52.5586C71.9005 52.5586 71.4193 52.6882 71.0464 52.9474C70.6771 53.2067 70.4179 53.5121 70.2687 53.8636L69.3685 53.5387C69.5532 53.0913 69.8089 52.7344 70.1356 52.468C70.4623 52.1982 70.828 52.0046 71.2329 51.8874C71.6377 51.7667 72.0479 51.7063 72.4633 51.7063C72.7758 51.7063 73.1008 51.7472 73.4381 51.8288C73.779 51.9105 74.0951 52.0526 74.3863 52.255C74.6775 52.4538 74.9136 52.7326 75.0947 53.0913C75.2758 53.4464 75.3664 53.8974 75.3664 54.4442V60H74.4182V58.7056H74.3596C74.246 58.9471 74.0773 59.1815 73.8536 59.4087C73.6299 59.636 73.3493 59.8224 73.012 59.968C72.6746 60.1136 72.2787 60.1864 71.8241 60.1864ZM71.952 59.3182C72.4562 59.3182 72.893 59.2063 73.2623 58.9826C73.6317 58.7589 73.9158 58.4624 74.1146 58.093C74.317 57.7202 74.4182 57.31 74.4182 56.8626V55.68C74.3472 55.7475 74.2283 55.8079 74.0613 55.8612C73.898 55.9144 73.708 55.9624 73.4914 56.005C73.2783 56.044 73.0653 56.0778 72.8522 56.1062C72.6391 56.1346 72.4474 56.1594 72.2769 56.1808C71.8153 56.2376 71.4211 56.3263 71.0944 56.4471C70.7677 56.5678 70.5173 56.7347 70.3433 56.9478C70.1693 57.1573 70.0823 57.4272 70.0823 57.7575C70.0823 58.2546 70.2599 58.6399 70.615 58.9134C70.9701 59.1832 71.4158 59.3182 71.952 59.3182ZM77.0691 62.3278V59.1051H77.7776C77.9551 58.9062 78.1096 58.6914 78.241 58.4606C78.3724 58.2298 78.486 57.967 78.5819 57.6722C78.6813 57.3739 78.7648 57.0277 78.8323 56.6335C78.8997 56.2358 78.9566 55.7724 79.0027 55.2433L79.301 51.8182H84.143V59.1051H85.3575V62.3278H84.4093V60H78.0226V62.3278H77.0691ZM78.8696 59.1051H83.1948V52.7131H80.1852L79.9402 55.2433C79.855 56.1026 79.7343 56.8519 79.578 57.4911C79.4218 58.1303 79.1856 58.6683 78.8696 59.1051ZM92.8384 55.467V56.3619H88.0283V55.467H92.8384ZM88.2627 51.8182V60H87.3146V51.8182H88.2627ZM93.5362 51.8182V60H92.588V51.8182H93.5362ZM98.4948 60.1864C98.0012 60.1864 97.5502 60.0906 97.1419 59.8988C96.7335 59.7035 96.4085 59.4229 96.1671 59.0572C95.9256 58.6879 95.8049 58.2404 95.8049 57.7148C95.8049 57.31 95.8812 56.9691 96.0339 56.6921C96.1866 56.4151 96.4032 56.1879 96.6838 56.0103C96.9643 55.8327 97.2963 55.6925 97.6799 55.5895C98.0634 55.4865 98.486 55.4066 98.9476 55.3498C99.4057 55.293 99.7928 55.2433 100.109 55.2006C100.428 55.158 100.672 55.0906 100.839 54.9982C101.005 54.9059 101.089 54.7567 101.089 54.5508V54.359C101.089 53.8015 100.922 53.3629 100.588 53.0433C100.258 52.7202 99.7821 52.5586 99.1607 52.5586C98.5712 52.5586 98.09 52.6882 97.7171 52.9474C97.3478 53.2067 97.0886 53.5121 96.9394 53.8636L96.0392 53.5387C96.2239 53.0913 96.4796 52.7344 96.8063 52.468C97.133 52.1982 97.4987 52.0046 97.9036 51.8874C98.3084 51.7667 98.7186 51.7063 99.134 51.7063C99.4465 51.7063 99.7715 51.7472 100.109 51.8288C100.45 51.9105 100.766 52.0526 101.057 52.255C101.348 52.4538 101.584 52.7326 101.765 53.0913C101.947 53.4464 102.037 53.8974 102.037 54.4442V60H101.089V58.7056H101.03C100.917 58.9471 100.748 59.1815 100.524 59.4087C100.301 59.636 100.02 59.8224 99.6827 59.968C99.3453 60.1136 98.9494 60.1864 98.4948 60.1864ZM98.6227 59.3182C99.1269 59.3182 99.5637 59.2063 99.9331 58.9826C100.302 58.7589 100.586 58.4624 100.785 58.093C100.988 57.7202 101.089 57.31 101.089 56.8626V55.68C101.018 55.7475 100.899 55.8079 100.732 55.8612C100.569 55.9144 100.379 55.9624 100.162 56.005C99.949 56.044 99.736 56.0778 99.5229 56.1062C99.3098 56.1346 99.1181 56.1594 98.9476 56.1808C98.486 56.2376 98.0918 56.3263 97.7651 56.4471C97.4384 56.5678 97.188 56.7347 97.014 56.9478C96.84 57.1573 96.753 57.4272 96.753 57.7575C96.753 58.2546 96.9306 58.6399 97.2857 58.9134C97.6408 59.1832 98.0865 59.3182 98.6227 59.3182ZM110.233 55.467V56.3619H105.423V55.467H110.233ZM105.657 51.8182V60H104.709V51.8182H105.657ZM110.931 51.8182V60H109.983V51.8182H110.931ZM119.128 55.467V56.3619H114.318V55.467H119.128ZM114.553 51.8182V60H113.604V51.8182H114.553ZM119.826 51.8182V60H118.878V51.8182H119.826ZM127.421 60V52.6971H125.168C124.582 52.7006 124.137 52.8232 123.831 53.0646C123.529 53.3061 123.378 53.6665 123.378 54.146C123.378 54.6254 123.522 54.9858 123.81 55.2273C124.098 55.4652 124.517 55.5842 125.067 55.5842H127.688V56.479H125.067C124.502 56.479 124.023 56.3885 123.629 56.2074C123.238 56.0263 122.94 55.7617 122.734 55.4137C122.528 55.0657 122.425 54.6431 122.425 54.146C122.425 53.6452 122.53 53.2227 122.739 52.8782C122.952 52.5302 123.263 52.2674 123.671 52.0898C124.083 51.9087 124.582 51.8182 125.168 51.8182H128.327V60H127.421ZM121.908 60L124.263 55.9304H125.301L122.947 60H121.908ZM134.867 52.7131V51.8182H141.259V52.7131H138.553V60H137.605V52.7131H134.867ZM145.274 60.1864C144.78 60.1864 144.329 60.0906 143.921 59.8988C143.512 59.7035 143.187 59.4229 142.946 59.0572C142.705 58.6879 142.584 58.2404 142.584 57.7148C142.584 57.31 142.66 56.9691 142.813 56.6921C142.966 56.4151 143.182 56.1879 143.463 56.0103C143.743 55.8327 144.075 55.6925 144.459 55.5895C144.842 55.4865 145.265 55.4066 145.727 55.3498C146.185 55.293 146.572 55.2433 146.888 55.2006C147.207 55.158 147.451 55.0906 147.617 54.9982C147.784 54.9059 147.868 54.7567 147.868 54.5508V54.359C147.868 53.8015 147.701 53.3629 147.367 53.0433C147.037 52.7202 146.561 52.5586 145.94 52.5586C145.35 52.5586 144.869 52.6882 144.496 52.9474C144.127 53.2067 143.867 53.5121 143.718 53.8636L142.818 53.5387C143.003 53.0913 143.258 52.7344 143.585 52.468C143.912 52.1982 144.278 52.0046 144.682 51.8874C145.087 51.7667 145.497 51.7063 145.913 51.7063C146.225 51.7063 146.55 51.7472 146.888 51.8288C147.229 51.9105 147.545 52.0526 147.836 52.255C148.127 52.4538 148.363 52.7326 148.544 53.0913C148.725 53.4464 148.816 53.8974 148.816 54.4442V60H147.868V58.7056H147.809C147.696 58.9471 147.527 59.1815 147.303 59.4087C147.08 59.636 146.799 59.8224 146.462 59.968C146.124 60.1136 145.728 60.1864 145.274 60.1864ZM145.402 59.3182C145.906 59.3182 146.343 59.2063 146.712 58.9826C147.081 58.7589 147.365 58.4624 147.564 58.093C147.767 57.7202 147.868 57.31 147.868 56.8626V55.68C147.797 55.7475 147.678 55.8079 147.511 55.8612C147.348 55.9144 147.158 55.9624 146.941 56.005C146.728 56.044 146.515 56.0778 146.302 56.1062C146.089 56.1346 145.897 56.1594 145.727 56.1808C145.265 56.2376 144.871 56.3263 144.544 56.4471C144.217 56.5678 143.967 56.7347 143.793 56.9478C143.619 57.1573 143.532 57.4272 143.532 57.7575C143.532 58.2546 143.709 58.6399 144.065 58.9134C144.42 59.1832 144.865 59.3182 145.402 59.3182ZM159.165 60.1705C158.401 60.1705 157.741 59.9929 157.183 59.6378C156.626 59.2791 156.194 58.7837 155.889 58.1516C155.587 57.516 155.436 56.7844 155.436 55.957C155.436 55.1332 155.587 54.4016 155.889 53.7624C156.194 53.1197 156.615 52.6172 157.151 52.255C157.691 51.8892 158.314 51.7063 159.021 51.7063C159.465 51.7063 159.893 51.788 160.305 51.9513C160.717 52.1112 161.086 52.358 161.413 52.6918C161.743 53.022 162.004 53.4393 162.196 53.9435C162.387 54.4442 162.483 55.0373 162.483 55.7227V56.1914H156.091V55.3551H161.514C161.514 54.8295 161.407 54.3572 161.194 53.9382C160.985 53.5156 160.692 53.1818 160.315 52.9368C159.943 52.6918 159.511 52.5692 159.021 52.5692C158.503 52.5692 158.046 52.7077 157.652 52.9847C157.258 53.2617 156.949 53.6275 156.725 54.082C156.505 54.5366 156.393 55.0337 156.39 55.5735V56.0742C156.39 56.7241 156.501 57.2923 156.725 57.7788C156.952 58.2617 157.274 58.6364 157.689 58.9027C158.105 59.169 158.597 59.3022 159.165 59.3022C159.552 59.3022 159.891 59.2418 160.182 59.1211C160.477 59.0004 160.724 58.8388 160.923 58.6364C161.125 58.4304 161.278 58.2049 161.381 57.9599L162.281 58.2528C162.157 58.5973 161.952 58.9151 161.668 59.2063C161.388 59.4975 161.036 59.7319 160.614 59.9094C160.195 60.0835 159.712 60.1705 159.165 60.1705ZM163.918 60V59.1051H164.174C164.465 59.1051 164.7 59.0518 164.877 58.9453C165.058 58.8352 165.199 58.6506 165.298 58.3913C165.397 58.1321 165.472 57.7788 165.522 57.3313C165.571 56.8839 165.611 56.3228 165.639 55.6481L165.815 51.8182H171.014V60H170.06V52.7131H166.715L166.56 55.9677C166.529 56.6317 166.475 57.2159 166.401 57.7202C166.33 58.2244 166.212 58.6452 166.049 58.9826C165.889 59.32 165.666 59.5739 165.378 59.7443C165.094 59.9148 164.721 60 164.259 60H163.918ZM176.984 60.1705C176.221 60.1705 175.56 59.9929 175.003 59.6378C174.445 59.2791 174.014 58.7837 173.708 58.1516C173.407 57.516 173.256 56.7844 173.256 55.957C173.256 55.1332 173.407 54.4016 173.708 53.7624C174.014 53.1197 174.435 52.6172 174.971 52.255C175.511 51.8892 176.134 51.7063 176.841 51.7063C177.284 51.7063 177.712 51.788 178.124 51.9513C178.536 52.1112 178.906 52.358 179.232 52.6918C179.562 53.022 179.823 53.4393 180.015 53.9435C180.207 54.4442 180.303 55.0373 180.303 55.7227V56.1914H173.911V55.3551H179.333C179.333 54.8295 179.227 54.3572 179.014 53.9382C178.804 53.5156 178.511 53.1818 178.135 52.9368C177.762 52.6918 177.331 52.5692 176.841 52.5692C176.322 52.5692 175.866 52.7077 175.472 52.9847C175.077 53.2617 174.768 53.6275 174.545 54.082C174.325 54.5366 174.213 55.0337 174.209 55.5735V56.0742C174.209 56.7241 174.321 57.2923 174.545 57.7788C174.772 58.2617 175.093 58.6364 175.509 58.9027C175.924 59.169 176.416 59.3022 176.984 59.3022C177.371 59.3022 177.711 59.2418 178.002 59.1211C178.297 59.0004 178.543 58.8388 178.742 58.6364C178.945 58.4304 179.097 58.2049 179.2 57.9599L180.1 58.2528C179.976 58.5973 179.772 58.9151 179.488 59.2063C179.207 59.4975 178.856 59.7319 178.433 59.9094C178.014 60.0835 177.531 60.1705 176.984 60.1705ZM182.542 60V51.8182H183.49V55.4989H184.38L187.422 51.8182H188.647L185.365 55.7546L188.721 60H187.496L184.673 56.3938H183.49V60H182.542ZM189.926 52.7131V51.8182H196.318V52.7131H193.612V60H192.664V52.7131H189.926ZM198.472 63.0682V51.8182H199.394V53.3789H199.506C199.619 53.1339 199.775 52.8835 199.974 52.6278C200.173 52.3686 200.436 52.1502 200.763 51.9727C201.093 51.7951 201.508 51.7063 202.009 51.7063C202.684 51.7063 203.273 51.8839 203.778 52.239C204.285 52.5906 204.68 53.0842 204.96 53.7198C205.244 54.3519 205.386 55.0888 205.386 55.9304C205.386 56.7756 205.244 57.516 204.96 58.1516C204.68 58.7873 204.285 59.2827 203.778 59.6378C203.273 59.9929 202.687 60.1705 202.02 60.1705C201.526 60.1705 201.112 60.0817 200.779 59.9041C200.448 59.7266 200.18 59.5082 199.974 59.2489C199.772 58.9862 199.616 58.7305 199.506 58.4819H199.42V63.0682H198.472ZM199.41 55.9144C199.41 56.5749 199.507 57.1609 199.703 57.6722C199.902 58.18 200.186 58.5795 200.555 58.8707C200.928 59.1584 201.379 59.3022 201.908 59.3022C202.451 59.3022 202.909 59.1531 203.282 58.8548C203.659 58.5529 203.944 58.1463 204.14 57.6349C204.339 57.1236 204.438 56.5501 204.438 55.9144C204.438 55.2859 204.34 54.7195 204.145 54.2152C203.953 53.7109 203.669 53.3114 203.293 53.0167C202.916 52.7184 202.455 52.5692 201.908 52.5692C201.375 52.5692 200.922 52.7131 200.55 53.0007C200.177 53.2848 199.893 53.679 199.697 54.1832C199.506 54.6839 199.41 55.261 199.41 55.9144ZM210.796 60.1705C210.09 60.1705 209.465 59.9911 208.921 59.6325C208.382 59.2738 207.959 58.7784 207.654 58.1463C207.348 57.5107 207.196 56.7773 207.196 55.9464C207.196 55.1083 207.348 54.3714 207.654 53.7358C207.959 53.0966 208.382 52.5994 208.921 52.2443C209.465 51.8857 210.09 51.7063 210.796 51.7063C211.503 51.7063 212.126 51.8857 212.666 52.2443C213.206 52.603 213.628 53.1001 213.934 53.7358C214.243 54.3714 214.397 55.1083 214.397 55.9464C214.397 56.7773 214.245 57.5107 213.939 58.1463C213.634 58.7784 213.209 59.2738 212.666 59.6325C212.126 59.9911 211.503 60.1705 210.796 60.1705ZM210.796 59.3022C211.365 59.3022 211.846 59.1495 212.24 58.8441C212.634 58.5387 212.932 58.1321 213.135 57.6243C213.341 57.1165 213.444 56.5572 213.444 55.9464C213.444 55.3356 213.341 54.7745 213.135 54.2631C212.932 53.7518 212.634 53.3416 212.24 53.0327C211.846 52.7237 211.365 52.5692 210.796 52.5692C210.232 52.5692 209.751 52.7237 209.353 53.0327C208.959 53.3416 208.659 53.7518 208.453 54.2631C208.25 54.7745 208.149 55.3356 208.149 55.9464C208.149 56.5572 208.25 57.1165 208.453 57.6243C208.659 58.1321 208.959 58.5387 209.353 58.8441C209.747 59.1495 210.228 59.3022 210.796 59.3022ZM222.152 55.467V56.3619H217.342V55.467H222.152ZM217.577 51.8182V60H216.629V51.8182H217.577ZM222.85 51.8182V60H221.902V51.8182H222.85ZM225.534 60V51.8182H226.488V60H225.534ZM226.019 50.4119C225.824 50.4119 225.657 50.3462 225.518 50.2148C225.38 50.0799 225.311 49.9183 225.311 49.7301C225.311 49.5419 225.38 49.3821 225.518 49.2507C225.657 49.1158 225.824 49.0483 226.019 49.0483C226.214 49.0483 226.381 49.1158 226.52 49.2507C226.658 49.3821 226.728 49.5419 226.728 49.7301C226.728 49.9183 226.658 50.0799 226.52 50.2148C226.381 50.3462 226.214 50.4119 226.019 50.4119ZM229.145 60V51.8182H230.094V55.4989H230.983L234.025 51.8182H235.25L231.969 55.7546L235.324 60H234.099L231.276 56.3938H230.094V60H229.145ZM239.315 60.1864C238.821 60.1864 238.37 60.0906 237.962 59.8988C237.554 59.7035 237.229 59.4229 236.987 59.0572C236.746 58.6879 236.625 58.2404 236.625 57.7148C236.625 57.31 236.701 56.9691 236.854 56.6921C237.007 56.4151 237.223 56.1879 237.504 56.0103C237.784 55.8327 238.116 55.6925 238.5 55.5895C238.883 55.4865 239.306 55.4066 239.768 55.3498C240.226 55.293 240.613 55.2433 240.929 55.2006C241.249 55.158 241.492 55.0906 241.659 54.9982C241.826 54.9059 241.909 54.7567 241.909 54.5508V54.359C241.909 53.8015 241.742 53.3629 241.408 53.0433C241.078 52.7202 240.602 52.5586 239.981 52.5586C239.391 52.5586 238.91 52.6882 238.537 52.9474C238.168 53.2067 237.909 53.5121 237.76 53.8636L236.859 53.5387C237.044 53.0913 237.3 52.7344 237.626 52.468C237.953 52.1982 238.319 52.0046 238.724 51.8874C239.129 51.7667 239.539 51.7063 239.954 51.7063C240.267 51.7063 240.592 51.7472 240.929 51.8288C241.27 51.9105 241.586 52.0526 241.877 52.255C242.168 52.4538 242.404 52.7326 242.586 53.0913C242.767 53.4464 242.857 53.8974 242.857 54.4442V60H241.909V58.7056H241.85C241.737 58.9471 241.568 59.1815 241.344 59.4087C241.121 59.636 240.84 59.8224 240.503 59.968C240.165 60.1136 239.77 60.1864 239.315 60.1864ZM239.443 59.3182C239.947 59.3182 240.384 59.2063 240.753 58.9826C241.122 58.7589 241.407 58.4624 241.605 58.093C241.808 57.7202 241.909 57.31 241.909 56.8626V55.68C241.838 55.7475 241.719 55.8079 241.552 55.8612C241.389 55.9144 241.199 55.9624 240.982 56.005C240.769 56.044 240.556 56.0778 240.343 56.1062C240.13 56.1346 239.938 56.1594 239.768 56.1808C239.306 56.2376 238.912 56.3263 238.585 56.4471C238.258 56.5678 238.008 56.7347 237.834 56.9478C237.66 57.1573 237.573 57.4272 237.573 57.7575C237.573 58.2546 237.751 58.6399 238.106 58.9134C238.461 59.1832 238.907 59.3182 239.443 59.3182Z" fill="black"/>
</svg>
